[Header]
FileType HTR
DataType HTRS
FileVersion 1
NumSegments 64
NumFrames 3
DataFrameRate 24
EulerRotationOrder ZYX
CalibrationUnits mm
RotationUnits Degrees
GlobalAxisofGravity Y
BoneLengthAxis Y
ScaleFactor 1.0
[SegmentNames&Hierarchy]
Hips	GLOBAL
Spine	Hips
Spine1	Spine
Spine2	Spine1
Neck	Spine2
Head	Neck
LeftEye	Head
RightEye	Head
LeftShoulder	Spine2
LeftArm	LeftShoulder
LeftForeArm	LeftArm
LeftHand	LeftForeArm
LeftHandThumb1	LeftHand
LeftHandThumb2	LeftHandThumb1
LeftHandThumb3	LeftHandThumb2
LeftHandThumb4	LeftHandThumb3
LeftHandIndex1	LeftHand
LeftHandIndex2	LeftHandIndex1
LeftHandIndex3	LeftHandIndex2
LeftHandIndex4	LeftHandIndex3
LeftHandMiddle1	LeftHand
LeftHandMiddle2	LeftHandMiddle1
LeftHandMiddle3	LeftHandMiddle2
LeftHandMiddle4	LeftHandMiddle3
LeftHandRing1	LeftHand
LeftHandRing2	LeftHandRing1
LeftHandRing3	LeftHandRing2
LeftHandRing4	LeftHandRing3
LeftHandPinky1	LeftHand
LeftHandPinky2	LeftHandPinky1
LeftHandPinky3	LeftHandPinky2
LeftHandPinky4	LeftHandPinky3
RightShoulder	Spine2
RightArm	RightShoulder
RightForeArm	RightArm
RightHand	RightForeArm
RightHandPinky1	RightHand
RightHandPinky2	RightHandPinky1
RightHandPinky3	RightHandPinky2
RightHandPinky4	RightHandPinky3
RightHandRing1	RightHand
RightHandRing2	RightHandRing1
RightHandRing3	RightHandRing2
RightHandRing4	RightHandRing3
RightHandMiddle1	RightHand
RightHandMiddle2	RightHandMiddle1
RightHandMiddle3	RightHandMiddle2
RightHandMiddle4	RightHandMiddle3
RightHandIndex1	RightHand
RightHandIndex2	RightHandIndex1
RightHandIndex3	RightHandIndex2
RightHandIndex4	RightHandIndex3
RightHandThumb1	RightHand
RightHandThumb2	RightHandThumb1
RightHandThumb3	RightHandThumb2
RightHandThumb4	RightHandThumb3
LeftUpLeg	Hips
LeftLeg	LeftUpLeg
LeftFoot	LeftLeg
LeftToeBase	LeftFoot
RightUpLeg	Hips
RightLeg	RightUpLeg
RightFoot	RightLeg
RightToeBase	RightFoot
[BasePosition]
Hips	0	0	0	0	0	0	1
Spine	0	0	0	0	0	0	1
Spine1	0	0	0	0	0	0	1
Spine2	0	0	0	0	0	0	1
Neck	0	0	0	0	0	0	1
Head	0	0	0	0	0	0	1
LeftEye	0	0	0	0	0	0	1
RightEye	0	0	0	0	0	0	1
LeftShoulder	0	0	0	0	0	0	1
LeftArm	0	0	0	0	0	0	1
LeftForeArm	0	0	0	0	0	0	1
LeftHand	0	0	0	0	0	0	1
LeftHandThumb1	0	0	0	0	0	0	1
LeftHandThumb2	0	0	0	0	0	0	1
LeftHandThumb3	0	0	0	0	0	0	1
LeftHandThumb4	0	0	0	0	0	0	1
LeftHandIndex1	0	0	0	0	0	0	1
LeftHandIndex2	0	0	0	0	0	0	1
LeftHandIndex3	0	0	0	0	0	0	1
LeftHandIndex4	0	0	0	0	0	0	1
LeftHandMiddle1	0	0	0	0	0	0	1
LeftHandMiddle2	0	0	0	0	0	0	1
LeftHandMiddle3	0	0	0	0	0	0	1
LeftHandMiddle4	0	0	0	0	0	0	1
LeftHandRing1	0	0	0	0	0	0	1
LeftHandRing2	0	0	0	0	0	0	1
LeftHandRing3	0	0	0	0	0	0	1
LeftHandRing4	0	0	0	0	0	0	1
LeftHandPinky1	0	0	0	0	0	0	1
LeftHandPinky2	0	0	0	0	0	0	1
LeftHandPinky3	0	0	0	0	0	0	1
LeftHandPinky4	0	0	0	0	0	0	1
RightShoulder	0	0	0	0	0	0	1
RightArm	0	0	0	0	0	0	1
RightForeArm	0	0	0	0	0	0	1
RightHand	0	0	0	0	0	0	1
RightHandPinky1	0	0	0	0	0	0	1
RightHandPinky2	0	0	0	0	0	0	1
RightHandPinky3	0	0	0	0	0	0	1
RightHandPinky4	0	0	0	0	0	0	1
RightHandRing1	0	0	0	0	0	0	1
RightHandRing2	0	0	0	0	0	0	1
RightHandRing3	0	0	0	0	0	0	1
RightHandRing4	0	0	0	0	0	0	1
RightHandMiddle1	0	0	0	0	0	0	1
RightHandMiddle2	0	0	0	0	0	0	1
RightHandMiddle3	0	0	0	0	0	0	1
RightHandMiddle4	0	0	0	0	0	0	1
RightHandIndex1	0	0	0	0	0	0	1
RightHandIndex2	0	0	0	0	0	0	1
RightHandIndex3	0	0	0	0	0	0	1
RightHandIndex4	0	0	0	0	0	0	1
RightHandThumb1	0	0	0	0	0	0	1
RightHandThumb2	0	0	0	0	0	0	1
RightHandThumb3	0	0	0	0	0	0	1
RightHandThumb4	0	0	0	0	0	0	1
LeftUpLeg	0	0	0	0	0	0	1
LeftLeg	0	0	0	0	0	0	1
LeftFoot	0	0	0	0	0	0	1
LeftToeBase	0	0	0	0	0	0	1
RightUpLeg	0	0	0	0	0	0	1
RightLeg	0	0	0	0	0	0	1
RightFoot	0	0	0	0	0	0	1
RightToeBase	0	0	0	0	0	0	1
[Hips]
24	127.6839523	1224.420654	-27.96347618	14.96818542	-8.03882122	-7.473315716	1.0
25	133.9299164	1155.906006	-13.86095524	14.13509083	-10.66453648	-8.033421516	1.0
26	137.3838959	1074.176147	-0.424156189	13.39966488	-10.3276825	-6.109147072	1.0
[Spine]
24	0	101.8159943	1.315000057	7.559135914	4.754743099	8.059023857	1.0
25	0	101.8159943	1.315000057	6.405601501	3.593792439	7.778250694	1.0
26	0	101.8159943	1.315000057	5.669196606	1.771227837	5.520678997	1.0
[Spine1]
24	0	100.8349991	-10.00800037	2.369879484	-0.01648493111	-1.425523639	1.0
25	0	100.8349991	-10.00800037	2.501621723	-0.1934511214	0.1712727696	1.0
26	0	100.8349991	-10.00800037	2.438409805	-0.4437642992	1.549610376	1.0
[Spine2]
24	0	91	-13.73399925	2.318952084	-0.1143048182	-1.384547114	1.0
25	0	91	-13.73399925	2.44843483	-0.1522065699	0.1939827055	1.0
26	0	91	-13.73399925	2.390078306	-0.2505924106	1.548298955	1.0
[Neck]
24	0	166.7169952	-25.16200066	-4.720901966	0.4138438702	-1.784695506	1.0
25	0	166.7169952	-25.16200066	-4.30424881	0.8033615947	-1.360448718	1.0
26	0	166.7169952	-25.16200066	-4.970952034	0.76923877	-1.082241654	1.0
[Head]
24	0	96.17900085	16.84999847	-22.70149994	2.455774069	-7.63829565	1.0
25	0	96.17900085	16.84999847	-20.30313301	4.880651951	-10.60857296	1.0
26	0	96.17900085	16.84999847	-18.96720695	4.844150543	-12.69294834	1.0
[LeftEye]
24	30.6760006	64.09500122	92.83599854	0	0	0	1.0
25	30.6760006	64.09500122	92.83599854	0	0	0	1.0
26	30.6760006	64.09500122	92.83599854	0	0	0	1.0
[RightEye]
24	-30.6760006	64.09500122	92.83499908	0	0	0	1.0
25	-30.6760006	64.09500122	92.83499908	0	0	0	1.0
26	-30.6760006	64.09500122	92.83499908	0	0	0	1.0
[LeftShoulder]
24	45.70400238	109.4599991	-26.28000069	5.204974651	-5.82290411	9.560771942	1.0
25	45.70400238	109.4599991	-26.28000069	4.9212327	-2.797764063	11.74206638	1.0
26	45.70400238	109.4599991	-26.28000069	4.8977952	-1.269747734	13.23413467	1.0
[LeftArm]
24	105.923996	-5.24600029	-22.32099915	-32.99184799	36.96408463	-54.51031113	1.0
25	105.923996	-5.24600029	-22.32099915	-43.83555984	28.69421959	-73.88574219	1.0
26	105.923996	-5.24600029	-22.32099915	-49.66160965	17.3769722	-86.82361603	1.0
[LeftForeArm]
24	278.414978	-0.0009999999311	0	6.22200514e-06	-56.90668488	-0.000209080521	1.0
25	278.414978	-0.0009999999311	0	-4.458291585e-07	-46.36458206	-0.0002011512406	1.0
26	278.414978	-0.0009999999311	0	-5.361561307e-06	-34.60269928	-0.0001960362424	1.0
[LeftHand]
24	283.2879944	0	0	5.372742653	-5.14567709	32.68886185	1.0
25	283.2879944	0	0	-3.169911623	3.680406094	27.26036644	1.0
26	283.2879944	0	0	-9.223555565	7.386149883	27.41461182	1.0
[LeftHandThumb1]
24	24.6609993	-15.75	26.8239994	10.96901608	-13.6694746	9.297344208	1.0
25	24.6609993	-15.75	26.8239994	10.81135941	-13.90353012	9.30294323	1.0
26	24.6609993	-15.75	26.8239994	10.8048954	-13.97693825	9.32937336	1.0
[LeftHandThumb2]
24	32.29800034	-18.64699936	18.64699936	-7.741756916	10.33397865	-6.03153038	1.0
25	32.29800034	-18.64699936	18.64699936	-7.885058403	9.818628311	-6.066616058	1.0
26	32.29800034	-18.64699936	18.64699936	-7.912995338	9.717939377	-6.073316574	1.0
[LeftHandThumb3]
24	26.52600098	-15.31499958	15.31499958	-0.1595757753	0.4195979834	-2.039834976	1.0
25	26.52600098	-15.31499958	15.31499958	-0.2070433646	0.2157593966	-2.08174181	1.0
26	26.52600098	-15.31499958	15.31499958	-0.2163045555	0.1759313196	-2.089906216	1.0
[LeftHandThumb4]
24	19.54599953	-11.28499985	11.28499985	0	0	0	1.0
25	19.54599953	-11.28499985	11.28499985	0	0	0	1.0
26	19.54599953	-11.28499985	11.28499985	0	0	0	1.0
[LeftHandIndex1]
24	91.09299469	-5.170999527	22.60099792	1.311846375	-9.336031914	10.74129963	1.0
25	91.09299469	-5.170999527	22.60099792	1.397550106	-9.749633789	11.79649925	1.0
26	91.09299469	-5.170999527	22.60099792	1.417702317	-9.852200508	11.99620056	1.0
[LeftHandIndex2]
24	36.76399994	0	0	0.0106779281	0.843736589	-0.5220152736	1.0
25	36.76399994	0	0	0.01842647232	0.7317152023	-2.660527389e-05	1.0
26	36.76399994	0	0	0.01869568229	0.7099069953	-5.484090798e-05	1.0
[LeftHandIndex3]
24	28.83100128	0	0	-0.1042898074	-1.198826313	9.859091759	1.0
25	28.83100128	0	0	-0.1244704574	-1.30859828	10.96906853	1.0
26	28.83100128	0	0	-0.1286469698	-1.329903364	11.18501091	1.0
[LeftHandIndex4]
24	23.92700005	0	0	0	0	0	1.0
25	23.92700005	0	0	0	0	0	1.0
26	23.92700005	0	0	0	0	0	1.0
[LeftHandMiddle1]
24	95.33399963	0	0	0.6187087297	2.223867893	3.816169977	1.0
25	95.33399963	0	0	0.7166512609	2.000146866	4.912211895	1.0
26	95.33399963	0	0	0.7364169359	1.980472326	5.132582188	1.0
[LeftHandMiddle2]
24	36.98199844	0	0	-0.3345890939	2.117557764	-13.30402088	1.0
25	36.98199844	0	0	-0.2923533916	2.013016224	-12.19147587	1.0
26	36.98199844	0	0	-0.2843744457	1.99257803	-11.97507095	1.0
[LeftHandMiddle3]
24	29.50900078	0	0	-0.03283187374	-0.4950928688	7.76779747	1.0
25	29.50900078	0	0	-0.0467046909	-0.6046987772	8.877527237	1.0
26	29.50900078	0	0	-0.04965642467	-0.6259791255	9.093413353	1.0
[LeftHandMiddle4]
24	28.3390007	0	0	0	0	0	1.0
25	28.3390007	0	0	0	0	0	1.0
26	28.3390007	0	0	0	0	0	1.0
[LeftHandRing1]
24	91.04499817	-0.4390000105	-18.65100098	-0.7039732933	14.5275631	-6.235425949	1.0
25	91.04499817	-0.4390000105	-18.65100098	-0.5864883661	14.53275013	-5.094663143	1.0
26	91.04499817	-0.4390000105	-18.65100098	-0.5671538711	14.58947372	-4.878149033	1.0
[LeftHandRing2]
24	31.54000092	0	0	-0.2655795515	2.297812223	-20.00170517	1.0
25	31.54000092	0	0	-0.2327613682	2.192128658	-18.88525963	1.0
26	31.54000092	0	0	-0.2266219556	2.17150569	-18.66823006	1.0
[LeftHandRing3]
24	29.37700081	0	0	0.03517852724	-0.07730145007	0.6952165365	1.0
25	29.37700081	0	0	0.02192565985	-0.1869899035	1.804592967	1.0
26	29.37700081	0	0	0.01909398288	-0.2083005309	2.020416975	1.0
[LeftHandRing4]
24	26.47500038	0	0	0	0	0	1.0
25	26.47500038	0	0	0	0	0	1.0
26	26.47500038	0	0	0	0	0	1.0
[LeftHandPinky1]
24	80.77799988	-4.887000084	-38.06099701	-1.702989578	26.39172554	-15.55518913	1.0
25	80.77799988	-4.887000084	-38.06099701	-1.537885547	26.60184288	-14.36886501	1.0
26	80.77799988	-4.887000084	-38.06099701	-1.51264739	26.75629807	-14.14396	1.0
[LeftHandPinky2]
24	36	0	0	-0.6775023341	2.228195667	-25.18722343	1.0
25	36	0	0	-0.6253413558	2.129137993	-24.0670414	1.0
26	36	0	0	-0.6154147387	2.109740734	-23.84911346	1.0
[LeftHandPinky3]
24	21.14200211	0	0	-0.01222742442	0.906332016	-0.4804052114	1.0
25	21.14200211	0	0	-0.002871991135	0.7954048514	0.6292737126	1.0
26	21.14200211	0	0	-0.001305463025	0.7738006115	0.8451413512	1.0
[LeftHandPinky4]
24	19.75699997	0	0	0	0	0	1.0
25	19.75699997	0	0	0	0	0	1.0
26	19.75699997	0	0	0	0	0	1.0
[RightShoulder]
24	-45.70000076	109.4620056	-26.28000069	6.386086941	-1.527208686	4.151181698	1.0
25	-45.70000076	109.4620056	-26.28000069	7.065003872	-0.6077483892	1.079507947	1.0
26	-45.70000076	109.4620056	-26.28000069	7.79508543	-1.094783425	-2.147456646	1.0
[RightArm]
24	-105.9280014	-5.248000145	-22.32099915	-11.14459801	-4.974617004	61.46949768	1.0
25	-105.9280014	-5.248000145	-22.32099915	-9.338123322	2.457789183	63.86452484	1.0
26	-105.9280014	-5.248000145	-22.32099915	-9.577069283	11.10619831	67.13417816	1.0
[RightForeArm]
24	-278.414978	0	0	-1.465503487e-06	39.89029312	-1.489089072e-06	1.0
25	-278.414978	0	0	-3.607943199e-06	32.81970596	-3.935033419e-06	1.0
26	-278.414978	0	0	5.126330962e-06	25.23619652	1.46135144e-05	1.0
[RightHand]
24	-283.2879944	0	0.0009999999311	-2.467687845	9.421347618	-45.03253174	1.0
25	-283.2879944	0	0.0009999999311	-5.31102705	3.419060707	-39.31240463	1.0
26	-283.2879944	0	0.0009999999311	-8.22148037	1.260654688	-31.97018242	1.0
[RightHandPinky1]
24	-80.76699829	-4.885000229	-38.06000137	-1.663552046	-26.46771049	15.34794807	1.0
25	-80.76699829	-4.885000229	-38.06000137	-1.688352585	-26.40561485	15.49707222	1.0
26	-80.76699829	-4.885000229	-38.06000137	-1.634639382	-26.55209923	15.13301849	1.0
[RightHandPinky2]
24	-36	0	0.0009999999311	-0.6675082445	-2.20919323	24.99165916	1.0
25	-36	0	0.0009999999311	-0.6740568876	-2.221409321	25.13044548	1.0
26	-36	0	0.0009999999311	-0.6583456993	-2.19198823	24.79667664	1.0
[RightHandPinky3]
24	-21.14200211	0	0	-0.1782648861	1.985573769	1.910800219	1.0
25	-21.14200211	0	0	-0.1798961312	1.972013474	2.046884537	1.0
26	-21.14200211	0	0	-0.1760182083	2.004610062	1.719867468	1.0
[RightHandPinky4]
24	-19.75699997	0	0	0	0	0	1.0
25	-19.75699997	0	0	0	0	0	1.0
26	-19.75699997	0	0	0	0	0	1.0
[RightHandRing1]
24	-91.03599548	-0.4390000105	-18.65100098	-0.6843014956	-14.5476265	6.038808823	1.0
25	-91.03599548	-0.4390000105	-18.65100098	-0.6983779669	-14.53225708	6.180009842	1.0
26	-91.03599548	-0.4390000105	-18.65100098	-0.6643662453	-14.5677948	5.83868885	1.0
[RightHandRing2]
24	-31.54000092	0	0	-0.259649992	-2.279121161	19.80666351	1.0
25	-31.54000092	0	0	-0.2637742758	-2.292058945	19.9437294	1.0
26	-31.54000092	0	0	-0.2539093196	-2.26094389	19.61433601	1.0
[RightHandRing3]
24	-29.37700081	0	0	-0.06622099876	2.092274904	-2.408469439	1.0
25	-29.37700081	0	0	-0.06433822215	2.078844786	-2.272243023	1.0
26	-29.37700081	0	0	-0.06892216951	2.111107111	-2.599597692	1.0
[RightHandRing4]
24	-26.47500038	0	0	0	0	0	1.0
25	-26.47500038	0	0	0	0	0	1.0
26	-26.47500038	0	0	0	0	0	1.0
[RightHandMiddle1]
24	-95.32500458	0	0	0.6360548139	-2.197695971	-4.011082172	1.0
25	-95.32500458	0	0	0.6237942576	-2.24199605	-3.878474712	1.0
26	-95.32500458	0	0	0.6531774402	-2.131347418	-4.195842266	1.0
[RightHandMiddle2]
24	-36.98199844	0	0	-0.3270377815	-2.099165678	13.10954285	1.0
25	-36.98199844	0	0	-0.332318604	-2.111948013	13.24606323	1.0
26	-36.98199844	0	0	-0.3196823895	-2.081201077	12.91799259	1.0
[RightHandMiddle3]
24	-29.50900078	0	0	-0.01304541808	0.3101544976	-4.329138756	1.0
25	-29.50900078	0	0	-0.01229967643	0.2966215909	-4.193018913	1.0
26	-29.50900078	0	0	-0.01414338779	0.329139173	-4.520195484	1.0
[RightHandMiddle4]
24	-28.3390007	0	0.0009999999311	0	0	0	1.0
25	-28.3390007	0	0.0009999999311	0	0	0	1.0
26	-28.3390007	0	0.0009999999311	0	0	0	1.0
[RightHandIndex1]
24	-91.08300018	-5.167999744	22.60099792	1.325070381	9.408665657	-10.92541885	1.0
25	-91.08300018	-5.167999744	22.60099792	1.315304041	9.316150665	-10.80082798	1.0
26	-91.08300018	-5.167999744	22.60099792	1.341349363	9.543034554	-11.10004425	1.0
[RightHandIndex2]
24	-36.76399994	0	0	0.01350013446	-0.8241698742	0.3280401528	1.0
25	-36.76399994	0	0	0.01152133755	-0.8378944397	0.4642113149	1.0
26	-36.76399994	0	0	0.01621938311	-0.8049067259	0.1369653344	1.0
[RightHandIndex3]
24	-28.83100128	0	0	-0.1067444831	1.861553907	-6.377185345	1.0
25	-28.83100128	0	0	-0.1052360535	1.847942591	-6.241006374	1.0
26	-28.83100128	0	0	-0.1089014411	1.880639672	-6.568275452	1.0
[RightHandIndex4]
24	-23.92700005	0	0	0	0	0	1.0
25	-23.92700005	0	0	0	0	0	1.0
26	-23.92700005	0	0	0	0	0	1.0
[RightHandThumb1]
24	-24.64799881	-15.72700024	26.82600021	10.95709991	13.71626186	-9.310152054	1.0
25	-24.64799881	-15.72700024	26.82600021	11.00144196	13.6503973	-9.308486938	1.0
26	-24.64799881	-15.72700024	26.82600021	10.88019371	13.80119038	-9.300943375	1.0
[RightHandThumb2]
24	-32.29800034	-18.64699936	18.64699936	-7.762673378	-10.25805092	6.037859917	1.0
25	-32.29800034	-18.64699936	18.64699936	-7.722301483	-10.40294075	6.027807713	1.0
26	-32.29800034	-18.64699936	18.64699936	-7.822467327	-10.04313946	6.052583694	1.0
[RightHandThumb3]
24	-26.52600098	-15.31399918	15.31399918	-0.2618853748	0.4936743081	2.813831806	1.0
25	-26.52600098	-15.31399918	15.31399918	-0.2492889613	0.4361882806	2.802223206	1.0
26	-26.52600098	-15.31399918	15.31399918	-0.2805528641	0.5789362788	2.831017017	1.0
[RightHandThumb4]
24	-19.54599953	-11.28499985	11.28499985	0	0	0	1.0
25	-19.54599953	-11.28499985	11.28499985	0	0	0	1.0
26	-19.54599953	-11.28499985	11.28499985	0	0	0	1.0
[LeftUpLeg]
24	82.07800293	-67.51699829	-15.99599934	-34.1931076	8.354524612	5.839390278	1.0
25	82.07800293	-67.51699829	-15.99599934	-23.03494835	10.08254623	5.817683697	1.0
26	82.07800293	-67.51699829	-15.99599934	-25.56306458	10.22860813	3.060649633	1.0
[LeftLeg]
24	0	-443.7049866	2.845999956	22.79369164	3.828742981	4.097886562	1.0
25	0	-443.7049866	2.845999956	7.213349819	9.133105278	4.318840504	1.0
26	0	-443.7049866	2.845999956	12.50050926	8.38847065	5.363152981	1.0
[LeftFoot]
24	0	-444.2789917	-29.8219986	37.28101349	0.4775570631	0.2207041383	1.0
25	0	-444.2789917	-29.8219986	30.47232056	5.891135216	-1.720874906	1.0
26	0	-444.2789917	-29.8219986	22.79136848	11.6175127	0.3311259747	1.0
[LeftToeBase]
24	0	-87.28699493	107.1060028	4.698039532	4.306099072e-06	7.287526387e-07	1.0
25	0	-87.28699493	107.1060028	9.760761261	-1.41347482e-06	-9.590200989e-07	1.0
26	0	-87.28699493	107.1060028	-16.68891144	-0.4551381767	-2.563237906	1.0
[RightUpLeg]
24	-82.07800293	-67.51699829	-15.99599934	-86.16529083	-0.9920043945	27.66891861	1.0
25	-82.07800293	-67.51699829	-15.99599934	-82.52776337	1.058389306	12.88455963	1.0
26	-82.07800293	-67.51699829	-15.99599934	-76.65529633	1.901127815	0.9867185354	1.0
[RightLeg]
24	0	-443.7049866	2.861999989	147.1551666	8.917916298	-1.74252224	1.0
25	0	-443.7049866	2.861999989	135.561615	3.412443399	-3.929239273	1.0
26	0	-443.7049866	2.861999989	118.5931244	-0.9634960294	-6.030221462	1.0
[RightFoot]
24	0	-444.2770081	-29.83799934	10.5716877	-0.3263728023	0.2503161728	1.0
25	0	-444.2770081	-29.83799934	8.082844734	1.315357924	1.543673158	1.0
26	0	-444.2770081	-29.83799934	4.731696129	3.565799475	4.56483078	1.0
[RightToeBase]
24	0	-87.28699493	107.1060028	0.09905295819	7.349674203e-09	3.423903308e-06	1.0
25	0	-87.28699493	107.1060028	-0.4064651728	-3.213435321e-06	2.728973868e-06	1.0
26	0	-87.28699493	107.1060028	-0.9887139797	1.31376126e-07	-1.847166686e-06	1.0
[EndOfFile]
